<svg xmlns="http://www.w3.org/2000/svg" viewBox="0 0 95 34.24" width="95px" height="34.24px"><defs><style>.cls-1{fill:#1500b3;}.cls-2{fill:#478012;}.cls-3{fill:#76ff83;}.cls-4{fill:#c7ffbd;}.cls-5{fill:#5ee903;}.cls-6{fill:#5eea03;}.cls-7{fill:#35ba2a;}.cls-8{fill:#258402;}.cls-9{fill:#f6f7f5;}.cls-10{fill:#134401;}.cls-11{fill:#1ea805;}.cls-12{fill:#4e801a;}</style></defs><title>ts4-nav-logo-blue-refresh</title><g id="Layer_2" data-name="Layer 2"><g id="Layer_1-2" data-name="Layer 1"><path class="cls-1" d="M85,22.14H78.12L85,12.54Zm6.76,0V1.59H85.37L74.21,15.74a7,7,0,0,1,2.75,6A8,8,0,0,1,74.26,28a8.17,8.17,0,0,1-1.56,1.08H85v5.19h6.77V29.05H95V22.14ZM74.83,7.32h.26V6.39h.35V6.15h-1v.24h.35Zm1.1-.79.33.51h0l.32-.51v.79h.25V6.16h-.28l-.3.49L76,6.15h-.27V7.32h.25Zm-52.22,5.8C21.32,11.59,19.26,11,19.26,9c0-1.66,1.95-2.43,3.27-2.43a6.62,6.62,0,0,1,4.61,1.77l.22.18,3.35-4.26-.22-.17a13.92,13.92,0,0,0-8.16-2.74c-4.69,0-9.68,2.86-9.68,8.17,0,5.7,4.13,7,7.78,8.19,2.39.77,4.45,1.43,4.45,3.33S22.51,23.71,21,23.71c-3.53,0-6-2.54-6.84-3.29L10.87,25.2a16.83,16.83,0,0,0,7.68,4,15.54,15.54,0,0,0,2.75.24,11.61,11.61,0,0,0,7.2-2.21,8.13,8.13,0,0,0,3-6.64c0-5.86-4.14-7.13-7.79-8.26m45.67,2.35c-2-.61-3.2-1-3.2-2.15,0-.94,1.25-1.45,2.11-1.45A5,5,0,0,1,72,12.66l.21.18,3.27-4.16-.2-.16A11.42,11.42,0,0,0,68.14,6c-4,0-8.19,2.44-8.19,7,0,4.89,3.77,6.09,6.52,7,2,.64,3.2,1.09,3.2,2.18,0,1.26-1.74,1.67-2.58,1.67a5,5,0,0,1-3.89-1.65L63,21.87l-2.16,2.75L57.42,6.25H52.07l-2.14,9.28L47.58,3.77H42.35L38.1,29.05h6.17L45.52,21,47,29.05h5.72l1.54-8.16,1,8.16h6.44l-.28-1.2,0,0a12.62,12.62,0,0,0,5.83,1.35c5.23,0,8.6-2.95,8.6-7.52,0-5-3.78-6.17-6.53-7M37.84,6.25v22.8H31.36V25.47a9.93,9.93,0,0,0,1.19-4.88,9,9,0,0,0-1.19-4.76V6.25Zm1.7-1a3,3,0,0,0,1.73-.63l-.61-.85a2.06,2.06,0,0,1-1.07.42A1,1,0,0,1,39,4l2.46-1.58a2.07,2.07,0,0,0-1.82-1.11,1.93,1.93,0,0,0-2.05,2,1.93,1.93,0,0,0,2,2m.07-3a.8.8,0,0,1,.43.12l-1.35.87V3.2a.89.89,0,0,1,.92-.93m-5.54,3h1.11V3c0-.43.22-.67.56-.67s.42.18.42.54V5.25h1.12V2.48A1.08,1.08,0,0,0,36.13,1.3a1.37,1.37,0,0,0-1.06.48V0h-1Zm-1.45,0H31.38v-4H30.05L30.39.11h3.42V1.28H32.62Z"/><polygon class="cls-2" points="11.72 10.82 13.68 16.61 10.19 16.18 9.81 12.69 11.72 10.82"/><polygon class="cls-3" points="13.68 16.61 13.37 17.07 13.36 17.06 9.37 18.36 10.19 16.18 13.68 16.61"/><polygon class="cls-4" points="13.37 17.07 11.92 19.32 11.9 19.3 8.06 21.88 9.37 18.36 13.36 17.06 13.37 17.07"/><polygon class="cls-5" points="11.92 19.32 5.09 29.86 8.06 21.88 11.9 19.3 11.92 19.32"/><path class="cls-6" d="M11,8.79l.69,2L9.81,12.69,9.52,10A15.36,15.36,0,0,0,11,8.79Z"/><polygon class="cls-7" points="9.81 12.69 10.19 16.18 6.73 15.74 6.74 15.68 9.81 12.69"/><path class="cls-5" d="M10.19,16.17l-.82,2.19h0S5.23,19.92,4,20.28L3.5,15.34l3.23.4Z"/><path class="cls-3" d="M8.6,1.61,11,8.79A15.36,15.36,0,0,1,9.52,10Z"/><path class="cls-8" d="M9.37,18.36,8.06,21.88h0L4.52,24.7,4,20.28c1.19-.36,5.33-1.91,5.33-1.91Z"/><path class="cls-9" d="M9.52,10l.29,2.72-3.07,3v.06l-3.23-.4v0l1.07-2.87A20.81,20.81,0,0,0,9.52,10Z"/><polygon class="cls-10" points="8.05 21.89 8.06 21.88 5.09 29.86 4.52 24.7 8.05 21.89"/><path class="cls-4" d="M8.6,1.61,9.52,10a20.81,20.81,0,0,1-5,2.47Z"/><polygon class="cls-5" points="4.52 24.7 5.09 29.86 3.64 25.61 4.47 24.74 4.52 24.7"/><path class="cls-11" d="M8.6,1.61l-4,10.83a22.69,22.69,0,0,1-3.6,1Z"/><path class="cls-7" d="M4,20.28l.48,4.42,0,0-.83.87L2,20.83c.13,0,.93-.22,2-.55Z"/><path class="cls-12" d="M3.5,15.34,4,20.28H4c-1.08.33-1.88.52-2,.55L0,14.9Z"/><path class="cls-10" d="M4.56,12.44,3.49,15.31v0L0,14.9l1-1.48A22.69,22.69,0,0,0,4.56,12.44Z"/></g></g></svg>