<svg xmlns="http://www.w3.org/2000/svg" width="129" height="265" viewBox="0 0 129 265">
  <g fill="none" fill-rule="evenodd">
    <polygon fill="#C7FFBD" points=".22 132.589 64.149 264.305 127.964 132.704 64.211 .354"/>
    <polygon fill="#38D7FC" points="90.497 153.807 125.8 137.228 125.937 137.297 128.183 132.675 128.183 132.673 95.519 132.66"/>
    <polygon fill="#9FEDFF" points="125.937 137.297 115.101 159.679 114.917 159.587 82.425 187.796 90.497 153.808 125.8 137.229"/>
    <polygon fill="#38D7FC" points="82.426 187.796 64.149 264.789 115.31 159.246"/>
    <path fill="#63BBFC" d="M94.7935,63.4868 L103.4835,81.5278 L88.0015,100.8858 L82.1755,76.1848 C86.5955,72.2728 90.8315,68.0398 94.7935,63.4868"/>
    <polygon fill="#0098ED" points="88.001 100.886 88.594 101.24 96.061 131.897 95.519 132.66 62.627 132.646"/>
    <path fill="#12FFFF" d="M64.1484,-2.84217094e-14 L94.7934,63.487 C90.8314,68.04 86.5954,72.273 82.1754,76.185 L64.1484,-2.84217094e-14 Z"/>
    <polygon fill="#12FFFF" points="52.998 217.837 64.148 264.789 45.922 227.242 52.519 218.317"/>
    <polygon fill="#0098ED" points="90.497 153.808 82.426 187.796 82.334 187.887 81.776 189.187 53.704 217.75 52.999 217.837 52.291 217.449 43.184 178.666 43.449 177.617 43.964 176.723 89.81 153.655"/>
    <path fill="#1500B3" d="M43.4482,177.6162 L52.9982,217.8372 L52.5182,218.3172 L45.9222,227.2422 L25.4302,185.0242 L25.7982,184.4832 C25.7982,184.4832 36.9012,179.9162 42.9282,177.2442 C42.9512,177.2442 43.4252,177.6162 43.4482,177.6162"/>
    <polygon fill="#1500B3" points="82.334 187.887 82.425 187.796 64.148 264.789 52.998 217.837"/>
    <path fill="#0098ED" d="M32.7783,132.6328 L43.4483,177.6158 C43.4253,177.6158 43.4023,177.6388 43.3793,177.6388 C33.7863,181.8918 26.5753,184.6118 25.4303,185.0248 L0.0003,132.6188 L0.6473,132.0198 L31.7313,132.0818 L32.7783,132.6328 Z"/>
    <polygon fill="#1500B3" points="103.484 81.528 128.183 132.674 95.519 132.66 88.002 100.886"/>
    <path fill="#12FFFF" d="M95.519,132.6597 L90.497,153.8077 L90.428,153.8307 C90.428,153.8307 54.002,172.9517 43.448,177.6167 L32.778,132.6327 L63.084,132.6457 L95.519,132.6597 Z"/>
    <path fill="#0098ED" d="M7.125,117.8804 L8.333,118.2004 L38.241,106.0884 C38.241,106.0884 38.967,104.8264 39.291,104.6644 C39.329,104.6454 39.369,104.6234 39.408,104.6044 L64.148,0.0004 L7.125,117.8804 Z"/>
    <path fill="#1500B3" d="M39.291,104.6646 C21.135,113.7666 7.125,117.8806 7.125,117.8806 L7.10542736e-15,132.6186 L32.778,132.6326 L39.408,104.6046 C39.369,104.6236 39.329,104.6446 39.291,104.6646"/>
    <path fill="#9FEDFF" d="M64.1484,2.84217094e-14 L39.4074,104.604 C52.7294,97.93 68.2704,88.595 82.1754,76.185 L64.1484,2.84217094e-14 Z"/>
    <path fill="#F6F7F5" d="M82.1753,76.1851 C68.2703,88.5951 52.7293,97.9301 39.4073,104.6041 L32.7783,132.6331 L62.6273,132.6451 L88.0013,100.8861 L82.1753,76.1851 Z"/>
  </g>
</svg>
